<?xml version="1.0" encoding="utf-8"?>
<!-- Generator: Adobe Illustrator 16.0.0, SVG Export Plug-In . SVG Version: 6.00 Build 0)  -->
<!DOCTYPE svg PUBLIC "-//W3C//DTD SVG 1.1//EN" "http://www.w3.org/Graphics/SVG/1.1/DTD/svg11.dtd">
<svg version="1.1" id="圖層_1" xmlns="http://www.w3.org/2000/svg" xmlns:xlink="http://www.w3.org/1999/xlink" x="0px" y="0px"
	 width="71.334px" height="71.334px" viewBox="0 0 71.334 71.334" enable-background="new 0 0 71.334 71.334" xml:space="preserve">
<g>
	<path fill="#FFFFFF" d="M16.18,12.948V27.81h18.57V5.13L18.857,8.712C17.361,9.05,16.18,10.942,16.18,12.948z M25.328,12.069
		l4.561-0.756v5.82l-4.561,0.52V12.069z M25.328,18.585l4.561-0.482v5.82l-4.561,0.246V18.585z M20.455,12.88l4.15-0.689v5.547
		l-4.15,0.477V12.88z M20.455,19.103l4.15-0.441v5.547l-4.15,0.227V19.103z"/>
	<path fill="#FFFFFF" d="M55.152,12.981c0-2.006-1.182-3.9-2.676-4.238l-15.893-3.58V27.81h18.568V12.981z M46.006,24.202
		l-4.561-0.248v-5.82l4.561,0.482V24.202z M46.006,17.687l-4.561-0.523v-5.818l4.561,0.758V17.687z M50.879,24.466l-4.15-0.225
		v-5.549l4.15,0.441V24.466z M50.879,18.245l-4.15-0.477v-5.545l4.15,0.688V18.245z"/>
	<path fill="#FFFFFF" d="M12.566,32.56v9.834l5.105,0.309l4.959,0.301l0.863,0.053l0,0l5.447,0.328v0.002l5.809,0.354V29.644H15.484
		C13.873,29.644,12.566,30.95,12.566,32.56z M23.494,35.272l5.447,0.002v6.953l-5.447-0.283V35.272z M17.672,35.271l4.959,0.002
		v6.627l-4.959-0.258V35.271z"/>
	<path fill="#FFFFFF" d="M42.393,43.384l5.447-0.328l0,0l0.863-0.053l4.957-0.301l5.107-0.309V32.56
		c0-1.609-1.307-2.916-2.918-2.916H36.584v14.096l5.809-0.354V43.384z M48.703,35.272l4.957-0.002v6.371l-4.957,0.258V35.272z
		 M42.393,35.274l5.447-0.002v6.672l-5.447,0.283V35.274z"/>
	<polygon fill="#FFFFFF" points="28.941,43.386 28.941,43.386 23.494,43.056 	"/>
	<polygon fill="#FFFFFF" points="34.17,45.571 11.984,44.228 1.48,48.077 24.084,50.263 	"/>
	<path fill="#FFFFFF" d="M11.984,50.954v7.293c0,1.438,1.016,2.639,2.367,2.926l0.055,0.012l20.344,5.02V47.29l-10.443,4.881
		L11.984,50.954z"/>
	<polygon fill="#FFFFFF" points="47.25,50.263 69.854,48.077 59.348,44.228 37.164,45.571 	"/>
	<path fill="#FFFFFF" d="M36.584,47.29v18.914l20.344-5.02l0.053-0.012c1.354-0.287,2.367-1.488,2.367-2.926v-7.293l-12.318,1.217
		L36.584,47.29z"/>
</g>
</svg>
