<?xml version="1.0" encoding="utf-8"?>
<!-- Generator: Adobe Illustrator 16.0.0, SVG Export Plug-In . SVG Version: 6.00 Build 0)  -->
<!DOCTYPE svg PUBLIC "-//W3C//DTD SVG 1.1//EN" "http://www.w3.org/Graphics/SVG/1.1/DTD/svg11.dtd">
<svg version="1.1" id="圖層_1" xmlns="http://www.w3.org/2000/svg" xmlns:xlink="http://www.w3.org/1999/xlink" x="0px" y="0px"
	 width="71.334px" height="71.334px" viewBox="0 0 71.334 71.334" enable-background="new 0 0 71.334 71.334" xml:space="preserve">
<g>
	<g>
		<path fill="#FFFFFF" d="M62.805,8.917H8.529c-1.744,0-3.16,1.416-3.16,3.162v36.342c0,1.746,1.416,3.16,3.16,3.16h54.275
			c1.744,0,3.16-1.414,3.16-3.16V12.079C65.965,10.333,64.549,8.917,62.805,8.917z M62.533,48.149H8.801V12.349h53.732V48.149z"/>
	</g>
	<rect x="27.678" y="53.63" fill="#FFFFFF" width="15.977" height="4.283"/>
	<path fill="#FFFFFF" d="M55.92,59.96H15.414c-0.68,0-1.229,0.549-1.229,1.229s0.549,1.229,1.229,1.229H55.92
		c0.68,0,1.229-0.549,1.229-1.229S56.6,59.96,55.92,59.96z"/>
	<path fill="#FFFFFF" d="M18.385,44.614c0.205,0.203,0.473,0.307,0.742,0.307c0.268,0,0.535-0.104,0.74-0.307l10.289-10.291
		l7.588,7.588c0.203,0.205,0.473,0.307,0.74,0.307s0.535-0.102,0.74-0.307c0.41-0.41,0.41-1.072,0-1.482l-2.459-2.459l7.289-7.287
		l12.66,12.66c0.205,0.205,0.473,0.309,0.74,0.309c0.27,0,0.537-0.104,0.742-0.309c0.408-0.408,0.408-1.072,0-1.48L44.795,28.46
		c-0.41-0.41-1.072-0.41-1.482,0l-8.029,8.027l-4.387-4.387c-0.408-0.408-1.072-0.408-1.48,0L18.385,43.132
		C17.977,43.542,17.977,44.204,18.385,44.614z"/>
	<path fill="#FFFFFF" d="M19.658,31.419c3.502,0,6.352-2.85,6.352-6.352s-2.85-6.352-6.352-6.352c-3.504,0-6.354,2.85-6.354,6.352
		S16.154,31.419,19.658,31.419z M19.658,20.583c2.471,0,4.482,2.012,4.482,4.484c0,2.471-2.012,4.484-4.482,4.484
		c-2.475,0-4.484-2.014-4.484-4.484C15.174,22.595,17.184,20.583,19.658,20.583z"/>
</g>
</svg>
