<?xml version="1.0" encoding="utf-8"?>
<!-- Generator: Adobe Illustrator 16.0.0, SVG Export Plug-In . SVG Version: 6.00 Build 0)  -->
<!DOCTYPE svg PUBLIC "-//W3C//DTD SVG 1.1//EN" "http://www.w3.org/Graphics/SVG/1.1/DTD/svg11.dtd">
<svg version="1.1" id="圖層_1" xmlns="http://www.w3.org/2000/svg" xmlns:xlink="http://www.w3.org/1999/xlink" x="0px" y="0px"
	 width="71.334px" height="71.334px" viewBox="0 0 71.334 71.334" enable-background="new 0 0 71.334 71.334" xml:space="preserve">
<g>
	
		<rect x="6.093" y="35.766" transform="matrix(-0.7071 0.7071 -0.7071 -0.7071 89.1944 42.811)" fill="#FFFFFF" width="59.274" height="8.226"/>
	<polygon fill="#FFFFFF" points="54.521,15.273 60.337,21.09 65.022,10.586 	"/>
	<path fill="#FFFFFF" d="M17.612,24.48l6.297-6.299c0-7.689-11.021-12.689-17.598-9.818C12.61,14.107,5.571,20.775,17.612,24.48z"/>
	<path fill="#FFFFFF" d="M57.62,62.918c1.27,1.217,3.32,1.148,4.598-0.129c1.279-1.279,1.348-3.328,0.129-4.6l-17.43-18.197
		l-5.494,5.494L57.62,62.918z"/>
	<polygon fill="#FFFFFF" points="29.966,36.346 35.774,30.535 24.651,18.922 18.353,25.221 	"/>
</g>
</svg>
