<?xml version="1.0" encoding="utf-8"?>
<!-- Generator: Adobe Illustrator 16.0.0, SVG Export Plug-In . SVG Version: 6.00 Build 0)  -->
<!DOCTYPE svg PUBLIC "-//W3C//DTD SVG 1.1//EN" "http://www.w3.org/Graphics/SVG/1.1/DTD/svg11.dtd">
<svg version="1.1" id="圖層_1" xmlns="http://www.w3.org/2000/svg" xmlns:xlink="http://www.w3.org/1999/xlink" x="0px" y="0px"
	 width="71.333px" height="71.334px" viewBox="0 0 71.333 71.334" enable-background="new 0 0 71.333 71.334" xml:space="preserve">
<g>
	<polygon fill="#FFFFFF" points="13.313,44.231 27.338,44.231 27.338,35.013 27.338,33.756 27.338,18.254 13.313,18.254 	"/>
	<polygon fill="#FFFFFF" points="28.653,45.486 28.653,60.99 42.68,60.99 42.68,42.974 42.68,41.717 42.68,35.013 28.653,35.013 	
		"/>
	<polygon fill="#FFFFFF" points="28.653,33.756 42.68,33.756 42.68,27.681 42.68,26.424 42.68,18.254 28.653,18.254 	"/>
	<polygon fill="#FFFFFF" points="43.995,33.756 43.995,35.013 43.995,41.717 58.02,41.717 58.02,27.681 43.995,27.681 	"/>
	<rect x="43.995" y="42.974" fill="#FFFFFF" width="14.025" height="18.017"/>
	<rect x="13.313" y="45.486" fill="#FFFFFF" width="14.025" height="15.504"/>
	<rect x="43.995" y="18.254" fill="#FFFFFF" width="14.025" height="8.17"/>
	<path fill="#FFFFFF" d="M51.007,12.701c0,1.262-1.022,2.286-2.286,2.286H15.599c-1.264,0-2.286-1.024-2.286-2.286l0,0
		c0-1.264,1.022-2.286,2.286-2.286h33.122C49.985,10.415,51.007,11.438,51.007,12.701L51.007,12.701z"/>
	<path fill="#FFFFFF" d="M55.663,10.344c-1.303,0-2.357,1.055-2.357,2.357c0,1.301,1.055,2.357,2.357,2.357s2.357-1.057,2.357-2.357
		C58.02,11.398,56.965,10.344,55.663,10.344z M55.663,14.01c-0.723,0-1.311-0.586-1.311-1.309c0-0.725,0.588-1.311,1.311-1.311
		s1.311,0.586,1.311,1.311C56.973,13.424,56.385,14.01,55.663,14.01z"/>
</g>
</svg>
